<svg class="animated" id="freepik_stories-otaku" xmlns="http://www.w3.org/2000/svg" viewBox="0 0 500 500" version="1.1" xmlns:xlink="http://www.w3.org/1999/xlink" xmlns:svgjs="http://svgjs.com/svgjs"><style>svg#freepik_stories-otaku:not(.animated) .animable {opacity: 0;}svg#freepik_stories-otaku.animated #freepik--background-simple--inject-153 {animation: 6s Infinite  linear floating;animation-delay: 0s;}svg#freepik_stories-otaku.animated #freepik--Poster--inject-153 {animation: 6s Infinite  linear floating;animation-delay: 0s;}svg#freepik_stories-otaku.animated #freepik--Character--inject-153 {animation: 6s Infinite  linear wind;animation-delay: 0s;}svg#freepik_stories-otaku.animated #freepik--Toy--inject-153 {animation: 6s Infinite  linear wind;animation-delay: 0s;}            @keyframes floating {                0% {                    opacity: 1;                    transform: translateY(0px);                }                50% {                    transform: translateY(-10px);                }                100% {                    opacity: 1;                    transform: translateY(0px);                }            }                    @keyframes wind {                0% {                    transform: rotate( 0deg );                }                25% {                    transform: rotate( 1deg );                }                75% {                    transform: rotate( -1deg );                }            }        </style><g id="freepik--background-simple--inject-153" class="animable" style="transform-origin: 250.149px 271.151px;"><path d="M83.88,117.48S-10.73,225.2,7.11,259.1s100-7.07,94,8.45S4.62,377.8,37.57,420.21s175.22-45.54,164.94-7.43-8.71,84.13,51.83,76.16S379.21,355.33,375,380.63s-17.37,115.47,41.7,90.5,88.7-140.18,75.71-220-50.12-39.1-64.82-41.95,38.58-112.26,9.92-140.25-165.62,74.23-180.76,79.72,36.51-90.44-11-95.16S147.45,58.49,83.88,117.48Z" style="fill: rgb(146, 227, 169); transform-origin: 250.149px 271.151px;" id="el48qtzthnkku" class="animable"></path><g id="el8onm1p4bgsg"><path d="M83.88,117.48S-10.73,225.2,7.11,259.1s100-7.07,94,8.45S4.62,377.8,37.57,420.21s175.22-45.54,164.94-7.43-8.71,84.13,51.83,76.16S379.21,355.33,375,380.63s-17.37,115.47,41.7,90.5,88.7-140.18,75.71-220-50.12-39.1-64.82-41.95,38.58-112.26,9.92-140.25-165.62,74.23-180.76,79.72,36.51-90.44-11-95.16S147.45,58.49,83.88,117.48Z" style="fill: rgb(255, 255, 255); opacity: 0.7; transform-origin: 250.149px 271.151px;" class="animable"></path></g></g><g id="freepik--Plant--inject-153" class="animable" style="transform-origin: 444.139px 374.436px;"><ellipse cx="445.07" cy="331.28" rx="7.51" ry="19.7" style="fill: rgb(146, 227, 169); stroke: rgb(38, 50, 56); stroke-miterlimit: 10; transform-origin: 445.07px 331.28px;" id="ely0x329qupqc" class="animable"></ellipse><path d="M421.74,319.13c2.34,7.39,6.85,12.55,10.07,11.53s3.92-7.84,1.57-15.23-6.86-12.56-10.07-11.54S419.39,311.74,421.74,319.13Z" style="fill: rgb(146, 227, 169); stroke: rgb(38, 50, 56); stroke-miterlimit: 10; transform-origin: 427.561px 317.275px;" id="elq59nkjdo99l" class="animable"></path><path d="M476.85,363.69c7.65-1.29,13.39-5,12.83-8.37s-7.22-5-14.87-3.68S461.42,356.69,462,360,469.21,365,476.85,363.69Z" style="fill: rgb(146, 227, 169); stroke: rgb(38, 50, 56); stroke-miterlimit: 10; transform-origin: 475.839px 357.659px;" id="el1pkgg6bzxnf" class="animable"></path><path d="M414.66,345.48c6.39,6.33,13.94,9.08,16.86,6.13s.11-10.47-6.28-16.8-13.93-9.08-16.85-6.13S408.28,339.14,414.66,345.48Z" style="fill: rgb(146, 227, 169); stroke: rgb(38, 50, 56); stroke-miterlimit: 10; transform-origin: 419.955px 340.145px;" id="els9hdzc870y" class="animable"></path><path d="M458.67,328.1c-6.18,9-8,18.41-4.11,21.1s12.08-2.39,18.25-11.35,8-18.4,4.11-21.09S464.84,319.14,458.67,328.1Z" style="fill: rgb(146, 227, 169); stroke: rgb(38, 50, 56); stroke-miterlimit: 10; transform-origin: 465.739px 332.98px;" id="ellrdnymq99ub" class="animable"></path><line x1="444.55" y1="350" x2="443.97" y2="409.94" style="fill: none; stroke: rgb(38, 50, 56); stroke-linecap: round; stroke-miterlimit: 10; transform-origin: 444.26px 379.97px;" id="el6phv3lz1fx2" class="animable"></line><line x1="445.25" y1="323.95" x2="444.55" y2="350" style="fill: none; stroke: rgb(38, 50, 56); stroke-linecap: round; stroke-miterlimit: 10; transform-origin: 444.9px 336.975px;" id="elgl6anp3vqcj" class="animable"></line><line x1="445.2" y1="319.7" x2="445.25" y2="321.7" style="fill: none; stroke: rgb(38, 50, 56); stroke-linecap: round; stroke-miterlimit: 10; transform-origin: 445.225px 320.7px;" id="ell6snk6jfsqn" class="animable"></line><path d="M454.59,347.92a75.56,75.56,0,0,0-7.42,28.43v37.07" style="fill: none; stroke: rgb(38, 50, 56); stroke-linecap: round; stroke-miterlimit: 10; transform-origin: 450.88px 380.67px;" id="elma2pbamfh2" class="animable"></path><path d="M467.49,328.18a89.08,89.08,0,0,0-12.9,19.74" style="fill: none; stroke: rgb(38, 50, 56); stroke-linecap: round; stroke-miterlimit: 10; transform-origin: 461.04px 338.05px;" id="elfx4ngd259jt" class="animable"></path><path d="M471.55,323.89s-.78.71-2.06,2.07" style="fill: none; stroke: rgb(38, 50, 56); stroke-linecap: round; stroke-miterlimit: 10; transform-origin: 470.52px 324.925px;" id="elgsb620tbo66" class="animable"></path><path d="M431.05,350.7a89.27,89.27,0,0,1,12.18,24.17" style="fill: none; stroke: rgb(38, 50, 56); stroke-linecap: round; stroke-miterlimit: 10; transform-origin: 437.14px 362.785px;" id="elm5kyrqpzr6" class="animable"></path><path d="M422.41,340.77a71.91,71.91,0,0,1,8.64,9.93" style="fill: none; stroke: rgb(38, 50, 56); stroke-linecap: round; stroke-miterlimit: 10; transform-origin: 426.73px 345.735px;" id="elt3i06sykqxc" class="animable"></path><path d="M413.18,333.74a39.17,39.17,0,0,1,6.58,4.66" style="fill: none; stroke: rgb(38, 50, 56); stroke-linecap: round; stroke-miterlimit: 10; transform-origin: 416.47px 336.07px;" id="elqdtkyokz08g" class="animable"></path><path d="M431.37,328.83c4.16,13.09,9.74,32.44,12.35,49.24" style="fill: none; stroke: rgb(38, 50, 56); stroke-linecap: round; stroke-miterlimit: 10; transform-origin: 437.545px 353.45px;" id="eloqh4ejx695s" class="animable"></path><path d="M428.83,321.06c.74,2.21,1.6,4.83,2.54,7.77" style="fill: none; stroke: rgb(38, 50, 56); stroke-linecap: round; stroke-miterlimit: 10; transform-origin: 430.1px 324.945px;" id="el177wliwwpzh" class="animable"></path><path d="M426.23,313.54s.73,2,1.9,5.45" style="fill: none; stroke: rgb(38, 50, 56); stroke-linecap: round; stroke-miterlimit: 10; transform-origin: 427.18px 316.265px;" id="elpsxgnl5hp7i" class="animable"></path><path d="M462.37,358.2c-5.2,2-12.31,7.47-14.77,14.67" style="fill: none; stroke: rgb(38, 50, 56); stroke-linecap: round; stroke-miterlimit: 10; transform-origin: 454.985px 365.535px;" id="elsxq2lut7z7" class="animable"></path><path d="M472,356.25a32.7,32.7,0,0,0-9.61,1.95" style="fill: none; stroke: rgb(38, 50, 56); stroke-linecap: round; stroke-miterlimit: 10; transform-origin: 467.195px 357.225px;" id="eli6yodi6xpx" class="animable"></path><path d="M478.2,356.4s-.92-.13-2.45-.19" style="fill: none; stroke: rgb(38, 50, 56); stroke-linecap: round; stroke-miterlimit: 10; transform-origin: 476.975px 356.305px;" id="elpmiuvi36gq" class="animable"></path><path d="M461.86,392.5c7,3.28,13.88,3.47,15.3.41s-3.11-8.2-10.13-11.48-13.88-3.46-15.31-.4S454.83,389.22,461.86,392.5Z" style="fill: rgb(146, 227, 169); stroke: rgb(38, 50, 56); stroke-miterlimit: 10; transform-origin: 464.439px 386.968px;" id="elo8ldez8r5uh" class="animable"></path><path d="M462.08,383.6a33.2,33.2,0,0,0-9-3.85,4.51,4.51,0,0,0-4.84.09c-1,.64-.63,5.39-.63,5.39v24.71" style="fill: none; stroke: rgb(38, 50, 56); stroke-linecap: round; stroke-miterlimit: 10; transform-origin: 454.812px 394.515px;" id="el4tcm8h10ch3" class="animable"></path><path d="M467.11,387.27s-.69-.64-1.91-1.55" style="fill: none; stroke: rgb(38, 50, 56); stroke-linecap: round; stroke-miterlimit: 10; transform-origin: 466.155px 386.495px;" id="elgqjqcu26i2k" class="animable"></path><path d="M411.42,363.69c-7.65-1.29-13.39-5-12.82-8.37s7.22-5,14.86-3.68,13.39,5.05,12.83,8.37S419.07,365,411.42,363.69Z" style="fill: rgb(146, 227, 169); stroke: rgb(38, 50, 56); stroke-miterlimit: 10; transform-origin: 412.444px 357.66px;" id="elsmg1yf3jv6o" class="animable"></path><path d="M425.74,358.14a25.8,25.8,0,0,1,2.72,1.19,19.07,19.07,0,0,1,10.18,17V409" style="fill: none; stroke: rgb(38, 50, 56); stroke-linecap: round; stroke-miterlimit: 10; transform-origin: 432.19px 383.57px;" id="elnw7t7xj767i" class="animable"></path><path d="M415.49,356.21a33.43,33.43,0,0,1,10.25,1.93" style="fill: none; stroke: rgb(38, 50, 56); stroke-linecap: round; stroke-miterlimit: 10; transform-origin: 420.615px 357.175px;" id="elf1oi732arc9" class="animable"></path><path d="M410.07,356.4s.61-.09,1.66-.15" style="fill: none; stroke: rgb(38, 50, 56); stroke-linecap: round; stroke-miterlimit: 10; transform-origin: 410.9px 356.325px;" id="eloytt4r2z29h" class="animable"></path><path d="M419.1,386.07c-6.72,3.87-13.54,4.64-15.22,1.71s2.39-8.43,9.11-12.3,13.54-4.64,15.22-1.72S425.82,382.19,419.1,386.07Z" style="fill: rgb(146, 227, 169); stroke: rgb(38, 50, 56); stroke-miterlimit: 10; transform-origin: 416.045px 380.774px;" id="el040ju9w8etyn" class="animable"></path><path d="M417.47,377.7a33.43,33.43,0,0,1,9.12-5s8.34-1.37,10.24,4" style="fill: none; stroke: rgb(38, 50, 56); stroke-linecap: round; stroke-miterlimit: 10; transform-origin: 427.15px 375.122px;" id="elgwzm4tov7co" class="animable"></path><path d="M413.41,381.3s.42-.45,1.18-1.17" style="fill: none; stroke: rgb(38, 50, 56); stroke-linecap: round; stroke-miterlimit: 10; transform-origin: 414px 380.715px;" id="elk14qowc6oc" class="animable"></path><path d="M435.56,377s9.82-1.9,9.82,4.75-7,12-9.82,19.64-8.24,7.92-11.09.32S425.74,380.16,435.56,377Z" style="fill: rgb(146, 227, 169); stroke: rgb(38, 50, 56); stroke-miterlimit: 10; transform-origin: 434.482px 392.008px;" id="elfadpmm1fc6r" class="animable"></path><path d="M442.21,377.31s-8.55,3.48-11.09,14.57" style="fill: rgb(146, 227, 169); stroke: rgb(38, 50, 56); stroke-miterlimit: 10; transform-origin: 436.665px 384.595px;" id="elbzxsiqidfzl" class="animable"></path><line x1="441.58" y1="391.88" x2="441.58" y2="409.94" style="fill: none; stroke: rgb(38, 50, 56); stroke-linecap: round; stroke-miterlimit: 10; transform-origin: 441.58px 400.91px;" id="el8bwtsic7xnc" class="animable"></line><path d="M425.85,445.1A76.87,76.87,0,0,1,422.29,422a69.86,69.86,0,0,1,1.42-14.14h40A69.86,69.86,0,0,1,465.15,422a77.18,77.18,0,0,1-3.55,23.11Z" style="fill: rgb(38, 50, 56); transform-origin: 443.72px 426.485px;" id="elnpaz1zmskmh" class="animable"></path><path d="M464.75,414.46c.12,1.09.21,2.19.27,3.31h-42.6c.06-1.12.15-2.22.27-3.31Z" style="fill: rgb(122, 122, 122); transform-origin: 443.72px 416.115px;" id="el19isv1tzubk" class="animable"></path><path d="M422.87,431.35c-.13-1.1-.25-2.2-.33-3.31H464.9c-.08,1.11-.2,2.21-.33,3.31Z" style="fill: rgb(122, 122, 122); transform-origin: 443.72px 429.695px;" id="ely0aonij1u8s" class="animable"></path><path d="M460,422.17a1.72,1.72,0,1,0,1.72-1.66A1.69,1.69,0,0,0,460,422.17Z" style="fill: rgb(140, 140, 140); transform-origin: 461.719px 422.23px;" id="elprr26k6lyld" class="animable"></path><path d="M451.36,422.17a1.72,1.72,0,1,0,1.72-1.66A1.69,1.69,0,0,0,451.36,422.17Z" style="fill: rgb(140, 140, 140); transform-origin: 453.079px 422.23px;" id="elfnta6afidea" class="animable"></path><path d="M442.74,422.17a1.72,1.72,0,1,0,1.72-1.66A1.69,1.69,0,0,0,442.74,422.17Z" style="fill: rgb(140, 140, 140); transform-origin: 444.459px 422.23px;" id="elhdpkqvfvuo6" class="animable"></path><path d="M434.11,422.17a1.73,1.73,0,1,0,1.73-1.66A1.7,1.7,0,0,0,434.11,422.17Z" style="fill: rgb(140, 140, 140); transform-origin: 435.839px 422.24px;" id="el2d9sg45ggr" class="animable"></path><path d="M425.49,422.17a1.73,1.73,0,1,0,1.73-1.66A1.7,1.7,0,0,0,425.49,422.17Z" style="fill: rgb(140, 140, 140); transform-origin: 427.219px 422.24px;" id="elfjp4j42178r" class="animable"></path></g><g id="freepik--Table--inject-153" class="animable" style="transform-origin: 256.37px 445.1px;"><line x1="16.75" y1="445.1" x2="495.99" y2="445.1" style="fill: none; stroke: rgb(38, 50, 56); stroke-linecap: round; stroke-miterlimit: 10; transform-origin: 256.37px 445.1px;" id="ela6kfnxgpex9" class="animable"></line></g><g id="freepik--Window--inject-153" class="animable" style="transform-origin: 380.805px 226.74px;"><g id="el9vkmmkdtqt6"><g style="opacity: 0.3; transform-origin: 380.805px 226.74px;" class="animable"><rect x="277.31" y="64.87" width="98.85" height="103.04" style="fill: none; stroke: rgb(0, 0, 0); stroke-linecap: round; stroke-miterlimit: 10; transform-origin: 326.735px 116.39px;" id="el1q6hoxbxulk" class="animable"></rect><rect x="385.45" y="64.87" width="98.85" height="103.04" style="fill: none; stroke: rgb(0, 0, 0); stroke-linecap: round; stroke-miterlimit: 10; transform-origin: 434.875px 116.39px;" id="el9hhdk8bg4k8" class="animable"></rect><rect x="277.31" y="175.22" width="98.85" height="103.04" style="fill: none; stroke: rgb(0, 0, 0); stroke-linecap: round; stroke-miterlimit: 10; transform-origin: 326.735px 226.74px;" id="elnf743wkwt6h" class="animable"></rect><rect x="385.45" y="175.22" width="98.85" height="103.04" style="fill: none; stroke: rgb(0, 0, 0); stroke-linecap: round; stroke-miterlimit: 10; transform-origin: 434.875px 226.74px;" id="elpklnxkduok" class="animable"></rect><rect x="277.31" y="285.57" width="98.85" height="103.04" style="fill: none; stroke: rgb(0, 0, 0); stroke-linecap: round; stroke-miterlimit: 10; transform-origin: 326.735px 337.09px;" id="elbqghrovgdmn" class="animable"></rect><rect x="385.45" y="285.57" width="98.85" height="103.04" style="fill: none; stroke: rgb(0, 0, 0); stroke-linecap: round; stroke-miterlimit: 10; transform-origin: 434.875px 337.09px;" id="elmkba8j5woce" class="animable"></rect></g></g></g><g id="freepik--Poster--inject-153" class="animable" style="transform-origin: 140.636px 195.146px;"><g id="elzhep8hxb2h"><rect x="55.53" y="81.67" width="170.21" height="226.95" style="fill: rgb(168, 168, 168); transform-origin: 140.635px 195.145px; transform: rotate(0.08deg);" class="animable"></rect></g><path d="M165.76,106a20.76,20.76,0,0,0-11.7,11.66c-3.91,9.24-5.38,16.54-8.31,21.89s-11.68,5.82-12.66,7.28,4.37,7.8,4.37,7.8,5.31,32.13,6.76,34.07,24.34,0,24.34,0,2.92.49,0,6.33l-2.93,5.83,12.16,2,31.76-82.7Z" style="fill: rgb(255, 255, 255); transform-origin: 171.26px 154.43px;" id="el3grl103nuhs" class="animable"></path><path d="M176.49,88.93S163.84,86.48,156,96.2s-13.67,25.29-13.67,25.29l18.48,11.22,7.31-7.78-3.91,10.22,17,11.22,6.84-12.65-.52,16.55s-8.3,20.91-25.35,32.08S91.16,195.88,66.8,212.88c-4.41,3.08-8.14,5.87-11.31,8.37l0,24.76a62,62,0,0,1,7.41-7.34,142.21,142.21,0,0,1,35.56-21.85s-25.82,19.43-39,38.88c-1.44,2.13-2.77,4.12-4,6l-.06,46.79,170.21.25L225.9,83C215.87,81.8,193.11,80.46,176.49,88.93Z" style="fill: rgb(38, 50, 56); transform-origin: 140.65px 195.427px;" id="elnhdkyosqig" class="animable"></path><g id="elbsqc87k4j59"><path d="M176.49,88.93S163.84,86.48,156,96.2s-13.67,25.29-13.67,25.29l18.48,11.22,7.31-7.78-3.91,10.22,17,11.22,6.84-12.65-.52,16.55s-8.3,20.91-25.35,32.08S91.16,195.88,66.8,212.88c-4.41,3.08-8.14,5.87-11.31,8.37l0,24.76a62,62,0,0,1,7.41-7.34,142.21,142.21,0,0,1,35.56-21.85s-25.82,19.43-39,38.88c-1.44,2.13-2.77,4.12-4,6l-.06,46.79,170.21.25L225.9,83C215.87,81.8,193.11,80.46,176.49,88.93Z" style="fill: rgb(255, 255, 255); opacity: 0.38; transform-origin: 140.65px 195.427px;" class="animable"></path></g><path d="M153.31,138.08s1.17,1.16,7.4,3.49,22.23,2.92,22.23,2.92-9.36,2.31-10.92,2.59,4.28,2.9,4.28,2.9a32.58,32.58,0,0,1-15.21-2.62C152.91,143.87,147.46,137.21,153.31,138.08Z" style="fill: rgb(38, 50, 56); transform-origin: 166.901px 144.029px;" id="elpowv2z8i16" class="animable"></path><path d="M141.68,165.31s3.18,1.74,5.79-2.31" style="fill: rgb(255, 255, 255); stroke: rgb(38, 50, 56); stroke-linecap: round; stroke-miterlimit: 10; transform-origin: 144.575px 164.341px;" id="el91schgeigf" class="animable"></path><line x1="151.12" y1="143.93" x2="155.6" y2="135.02" style="fill: rgb(255, 255, 255); stroke: rgb(38, 50, 56); stroke-linecap: round; stroke-miterlimit: 10; transform-origin: 153.36px 139.475px;" id="el5se4zkybzp7" class="animable"></line><path d="M164.84,159.8c-.6,1.47-4,1.47-7.67,0s-6.12-3.84-5.53-5.31,4-1.47,7.67,0S165.43,158.33,164.84,159.8Z" style="fill: rgb(146, 227, 169); transform-origin: 158.24px 157.145px;" id="elpp3eetji0iq" class="animable"></path><g id="eldo8wbwi0ua"><rect x="154.09" y="146" width="11.56" height="5.08" style="fill: rgb(38, 50, 56); transform-origin: 159.87px 148.54px; transform: rotate(26.53deg);" class="animable"></rect></g><path d="M157.57,146.84a1.44,1.44,0,1,1-1.44-1.44A1.44,1.44,0,0,1,157.57,146.84Z" style="fill: rgb(255, 255, 255); transform-origin: 156.13px 146.84px;" id="el9mjr2q00pob" class="animable"></path><path d="M161.82,149.51a1,1,0,1,1-1-1A1,1,0,0,1,161.82,149.51Z" style="fill: rgb(255, 255, 255); transform-origin: 160.82px 149.51px;" id="el3sr1can22e8" class="animable"></path><path d="M151.05,146.68l18.4,8.38a69.85,69.85,0,0,1-9.76-2.87A23.19,23.19,0,0,1,151.05,146.68Z" style="fill: rgb(38, 50, 56); transform-origin: 160.25px 150.87px;" id="eluj0pruj17ue" class="animable"></path><path d="M128.17,229.23c.32.26.51.45.51.64s-.26.5-.83.82l-2.09,1.14-.05,32c0,4.82.12,8.75.3,11.61v.38c0,.95-.25,1.14-1.77,1.77A4.32,4.32,0,0,1,123,278c-.38,0-.45-.32-.44-.83v-5.89l-29.16-.05V277c0,.83-.06,1-1.39,1.59a3.51,3.51,0,0,1-1.27.37c-.45,0-.57-.38-.57-1.33v-.69c.13-3.74.2-9.45.21-13.06l0-32c0-2.34,0-4.56-.18-6.53l4.37,3.37,27.14,0,1.84-2.85Zm-5.6,18.7,0-17.75-29.16-.05,0,17.75Zm0,21.93,0-20.54-29.17,0,0,20.54Z" style="fill: rgb(38, 50, 56); transform-origin: 109.425px 252.155px;" id="eljutwclh17sj" class="animable"></path><path d="M200.78,267.25a7.66,7.66,0,0,0-5.65,1.38.75.75,0,0,1-.57.26c-1,0-15.07-11.44-20.56-30.4h-1.33l0,27.83h8l2.6-3.42,4.05,3.49a1.38,1.38,0,0,1,.57.83c0,.32-.32.51-.89.51l-14.32,0c0,4.51.05,8.31.17,11.1v.32c0,1.07-.32,1.45-1.78,2.28a2.46,2.46,0,0,1-1.14.44c-.32,0-.44-.32-.44-1v-.69c.19-3.05.2-8.75.21-12.43h-8.94a13.3,13.3,0,0,0-4.06.63L154.94,266c1.46.13,3,.26,4.44.26l10.27,0,0-27.26c-7.12,14.38-15.51,25.2-27.37,33.56l-.57-.83c11.68-9.55,19.11-20.57,24.71-33.31l-16,0a12.84,12.84,0,0,0-4.25.69l-1.77-2.35c1.58.13,3.17.26,4.62.26l20.67,0V231.7c0-2.6-.12-6.91-.24-9.25l4.88,2.16a.73.73,0,0,1,.5.57.6.6,0,0,1-.38.57l-1.77,1.07,0,10.27,17.43,0,2.86-4.18,4.24,4.32a1.2,1.2,0,0,1,.45.76c0,.31-.32.5-1,.5l-21.31,0c3.6,9.71,12.52,24.3,25.39,27.81Z" style="fill: rgb(38, 50, 56); transform-origin: 171.245px 252.16px;" id="elt54zvkrm76b" class="animable"></path><path d="M137.21,181.76a16.12,16.12,0,0,0-31.32-5.39A16.12,16.12,0,1,0,81,194.55l24.4,23.91.46.45.45-.45,24.4-23.77A16,16,0,0,0,137.21,181.76Z" style="fill: rgb(255, 255, 255); transform-origin: 105.873px 192.216px;" id="elbx1xdlb2ndj" class="animable"></path><path d="M85.46,147.48a7,7,0,0,0-13.56-2.33A7,7,0,1,0,61.12,153l10.55,10.35.2.19.2-.19,10.55-10.28A7,7,0,0,0,85.46,147.48Z" style="fill: rgb(255, 255, 255); transform-origin: 71.8577px 151.946px;" id="eljiy6j8vbzfo" class="animable"></path><path d="M204.65,201.94a7,7,0,0,0-13.55-2.33,7,7,0,1,0-10.78,7.87l10.55,10.34.2.2.2-.2,10.55-10.28A7,7,0,0,0,204.65,201.94Z" style="fill: rgb(255, 255, 255); transform-origin: 191.057px 206.429px;" id="ellf20xh0epvn" class="animable"></path><path d="M135.28,97.3A7,7,0,0,0,121.73,95a7,7,0,1,0-10.79,7.86l10.56,10.35.2.19.19-.19,10.56-10.28A7,7,0,0,0,135.28,97.3Z" style="fill: rgb(255, 255, 255); transform-origin: 121.687px 101.813px;" id="el8d8nyplp0g8" class="animable"></path><line x1="65.9" y1="297.84" x2="214.59" y2="298.05" style="fill: none; stroke: rgb(38, 50, 56); stroke-miterlimit: 10; transform-origin: 140.245px 297.945px;" id="el2cpnkewgcet" class="animable"></line><line x1="91.29" y1="287.62" x2="189.23" y2="287.76" style="fill: none; stroke: rgb(38, 50, 56); stroke-miterlimit: 10; transform-origin: 140.26px 287.69px;" id="elznw89ux26qc" class="animable"></line><g id="elu4qc11wahy"><rect x="55.53" y="81.67" width="170.21" height="226.95" style="fill: none; stroke: rgb(145, 145, 145); stroke-linecap: round; stroke-miterlimit: 10; transform-origin: 140.635px 195.145px; transform: rotate(0.08deg);" class="animable"></rect></g><rect x="60.47" y="90.15" width="44.98" height="46.2" rx="5.81" style="fill: rgb(38, 50, 56); transform-origin: 82.96px 113.25px;" id="el2cdgdltzm35" class="animable"></rect><path d="M78,95c.1.08.16.14.16.2s-.08.17-.26.27l-.68.36v10.29c0,1.54,0,2.81.09,3.72V110c0,.31-.08.37-.57.57a1.3,1.3,0,0,1-.4.12c-.13,0-.15-.1-.15-.26v-1.89l-9.37,0v1.86c0,.26,0,.32-.45.5a1.29,1.29,0,0,1-.41.13c-.14,0-.18-.13-.18-.43v-.23c0-1.2.07-3,.07-4.19V95.87c0-.76,0-1.47-.06-2.1l1.41,1.08h8.71l.59-.91Zm-1.8,6v-5.7H66.8V101Zm0,7v-6.6H66.79V108Z" style="fill: rgb(255, 255, 255); transform-origin: 71.97px 102.4px;" id="eljx36uiih8s" class="animable"></path><path d="M101.27,107.22a2.49,2.49,0,0,0-1.81.44.22.22,0,0,1-.18.09c-.33,0-4.84-3.68-6.6-9.77h-.43l0,8.94H94.8l.84-1.09,1.3,1.12a.43.43,0,0,1,.18.26c0,.1-.1.17-.28.17H92.23c0,1.44,0,2.67.06,3.56v.1c0,.35-.1.47-.57.74a.78.78,0,0,1-.37.14c-.1,0-.14-.1-.14-.33v-.22c.06-1,.07-2.81.07-4H88.41a4.39,4.39,0,0,0-1.31.2l-.55-.73c.47,0,1,.08,1.43.08h3.3V98.16a27.26,27.26,0,0,1-8.79,10.78l-.18-.26A27.59,27.59,0,0,0,90.25,98H85.1a4.17,4.17,0,0,0-1.36.22l-.57-.75c.51,0,1,.08,1.48.08h6.64V95.8c0-.83,0-2.22-.07-3l1.56.69c.11,0,.17.13.17.19a.19.19,0,0,1-.13.18l-.57.35v3.29h5.6l.92-1.34,1.36,1.39a.38.38,0,0,1,.14.24c0,.1-.1.16-.31.16H93.12c1.16,3.12,4,7.81,8.15,8.93Z" style="fill: rgb(255, 255, 255); transform-origin: 91.79px 102.36px;" id="elaenht3oocn6" class="animable"></path><g id="elxdjo61u2u1n"><g style="opacity: 0.58; transform-origin: 83.505px 124.905px;" class="animable"><path d="M78,117.55c.1.08.16.15.16.21s-.08.16-.26.26l-.68.37v10.28c0,1.55,0,2.81.09,3.72v.13c0,.3-.08.36-.57.57a1.3,1.3,0,0,1-.4.12c-.13,0-.15-.11-.15-.27v-1.89H66.78v1.85c0,.26,0,.32-.45.51a1.21,1.21,0,0,1-.41.12c-.14,0-.18-.12-.18-.43v-.22c0-1.21.07-3,.07-4.2V118.41c0-.75,0-1.47-.06-2.1l1.41,1.08,8.71,0,.59-.92Zm-1.8,6v-5.7l-9.37,0v5.7Zm0,7V124H66.79v6.6Z" style="fill: rgb(255, 255, 255); transform-origin: 71.95px 124.92px;" id="elnmjqa5rh5a" class="animable"></path><path d="M101.27,129.76a2.45,2.45,0,0,0-1.81.45.24.24,0,0,1-.18.08c-.33,0-4.84-3.67-6.6-9.76h-.43l0,8.94H94.8l.84-1.1,1.3,1.12a.42.42,0,0,1,.18.27c0,.1-.1.16-.28.16H92.23c0,1.45,0,2.67.06,3.56v.11c0,.34-.1.46-.57.73a.78.78,0,0,1-.37.14c-.1,0-.14-.1-.14-.33v-.22c.06-1,.07-2.81.07-4H88.41a4.39,4.39,0,0,0-1.31.2l-.55-.74a14.07,14.07,0,0,0,1.43.09h3.3v-8.75a27.33,27.33,0,0,1-8.79,10.78l-.18-.27a27.59,27.59,0,0,0,7.93-10.7H85.1a3.92,3.92,0,0,0-1.36.23l-.57-.76c.51,0,1,.09,1.48.09h6.64v-1.73c0-.84,0-2.22-.07-3l1.56.7a.23.23,0,0,1,.17.18.19.19,0,0,1-.13.18l-.57.35v3.3h5.6l.92-1.35,1.36,1.39a.38.38,0,0,1,.14.24c0,.11-.1.17-.31.17H93.12c1.16,3.11,4,7.8,8.15,8.93Z" style="fill: rgb(255, 255, 255); transform-origin: 91.79px 124.905px;" id="elurxzmyzcetd" class="animable"></path></g></g></g><g id="freepik--Character--inject-153" class="animable" style="transform-origin: 287.54px 278.071px;"><g id="elhykyqkrl0mh"><circle cx="232.76" cy="147.67" r="28.1" style="fill: rgb(146, 227, 169); stroke: rgb(38, 50, 56); stroke-linecap: round; stroke-miterlimit: 10; transform-origin: 232.76px 147.67px; transform: rotate(-22.18deg);" class="animable"></circle></g><ellipse cx="234.55" cy="150.27" rx="15.92" ry="16.08" style="fill: rgb(255, 255, 255); stroke: rgb(38, 50, 56); stroke-linecap: round; stroke-miterlimit: 10; transform-origin: 234.55px 150.27px;" id="elslwrqgp5imb" class="animable"></ellipse><g id="el1muxzi570p8"><circle cx="370.18" cy="197.38" r="28.1" style="fill: rgb(146, 227, 169); stroke: rgb(38, 50, 56); stroke-linecap: round; stroke-miterlimit: 10; transform-origin: 370.18px 197.38px; transform: rotate(-49.59deg);" class="animable"></circle></g><path d="M352.44,195a15.92,15.92,0,1,0,19.7-11.12A16,16,0,0,0,352.44,195Z" style="fill: rgb(255, 255, 255); stroke: rgb(38, 50, 56); stroke-linecap: round; stroke-miterlimit: 10; transform-origin: 367.797px 199.206px;" id="el1g3fi9o3fkd" class="animable"></path><path d="M201.41,238.48s-1,9.09,4.55,13.64,33.46,20.47,42.23,28.59S265.41,297,265.41,297s52.77-3,64.23-5.73a45.94,45.94,0,0,0,24.79-15.06c5.19-6.17,6.17-17.54,3.89-25.34s-8.44-24-18.51-45.81-39.31-43.86-68.55-37.36-59.46,39.64-62.06,46.13S201.41,238.48,201.41,238.48Z" style="fill: rgb(38, 50, 56); stroke: rgb(38, 50, 56); stroke-linecap: round; stroke-miterlimit: 10; transform-origin: 280.409px 231.772px;" id="elrbqci28bc4r" class="animable"></path><path d="M257.29,281s-27-17.55-37-16.57-44.83,68.22-44.83,68.22-5.85,10.72-1.63,21.77,26,39.31,26,39.31L192,445.1H353.78L347,375.25s18.2-4.22,18.2-6.17-19.17-70.83-26-78.62-15.6-10.07-26-10.72-28.59.32-33.14.32S257.29,281,257.29,281Z" style="fill: rgb(146, 227, 169); stroke: rgb(38, 50, 56); stroke-linecap: round; stroke-miterlimit: 10; transform-origin: 268.75px 354.745px;" id="elsdes85g0edg" class="animable"></path><path d="M239.74,276.14s-2.59,6.47,3.89,18.64a44.82,44.82,0,0,0,17.08,17.6S281.68,309,292,302s23.82-23,23.82-23l-16.05-22-65.25-4.14Z" style="fill: rgb(38, 50, 56); stroke: rgb(38, 50, 56); stroke-linecap: round; stroke-miterlimit: 10; transform-origin: 275.17px 282.62px;" id="elin5i5ku9d9" class="animable"></path><path d="M251.39,255.68s.52,35.21,4.4,44.79,4.92,11.91,4.92,11.91S283,295.55,289.45,287s12.94-32.36,12.94-32.36l-53.33-8.29Z" style="fill: rgb(219, 219, 219); stroke: rgb(38, 50, 56); stroke-linecap: round; stroke-miterlimit: 10; transform-origin: 275.725px 279.365px;" id="el0tj1tj3yw0bi" class="animable"></path><polygon points="267.25 270.5 294.96 276.55 297.51 258.39 267.25 270.5" style="fill: rgb(38, 50, 56); stroke: rgb(38, 50, 56); stroke-linecap: round; stroke-miterlimit: 10; transform-origin: 282.38px 267.47px;" id="el7x7rup90fyx" class="animable"></polygon><path d="M234.49,259.07c-7.2-.5-19.49-8.45-20.46-15.92s4.22-14.61,4.22-14.61a8.88,8.88,0,0,0,1.62,7.14c2.6,3.25,12.35,1.3,13-3.89s-3.89-20.14-6.81-28.26a17.84,17.84,0,0,1,1.62-14.94s12.66-17.53,46.11-26.63,56.51-1,64,20.46,14.61,48.39,12,56.19S333.54,258.09,329,265.89s-1.62,12,2.6,12.66,8.12-1.95,8.12-1.95-1.63,10.72-10.07,14.62-24-.65-26.95-3.9-6.17-11.37-6.82-15.59.32-11,.32-11l-45.14-11.37S248.78,260,234.49,259.07Z" style="fill: rgb(255, 255, 255); stroke: rgb(38, 50, 56); stroke-linecap: round; stroke-miterlimit: 10; transform-origin: 282.125px 225.499px;" id="els6yaz72r98" class="animable"></path><path d="M242.22,183s41.1-13.8,57.41-10.66,40.29,53.53,42.05,69.65c.4,3.74.94,6.57.94,6.57l5.09-7.25S322.85,172.65,315,167s-27.61-5.33-42.36-1.57S242.22,183,242.22,183Z" style="fill: rgb(38, 50, 56); stroke: rgb(38, 50, 56); stroke-linecap: round; stroke-miterlimit: 10; transform-origin: 294.965px 205.615px;" id="elojpi0k4ces" class="animable"></path><path d="M325.46,219.72a20.18,20.18,0,0,0,1.58-3.85" style="fill: none; stroke: rgb(38, 50, 56); stroke-linecap: round; stroke-miterlimit: 10; transform-origin: 326.25px 217.795px;" id="elywr2jy46dir" class="animable"></path><path d="M313.4,229.84s2.28-.65,7.15-4.22a15.64,15.64,0,0,0,2.63-2.49" style="fill: none; stroke: rgb(38, 50, 56); stroke-linecap: round; stroke-miterlimit: 10; transform-origin: 318.29px 226.485px;" id="elkng0o1sw4po" class="animable"></path><path d="M308.21,197.36s4.87-3.24,6.49-11.36" style="fill: none; stroke: rgb(38, 50, 56); stroke-linecap: round; stroke-miterlimit: 10; transform-origin: 311.455px 191.68px;" id="elwkem8zngrxh" class="animable"></path><path d="M288.14,175.11c.76-1,1.6-2,2.53-3.08" style="fill: none; stroke: rgb(38, 50, 56); stroke-linecap: round; stroke-miterlimit: 10; transform-origin: 289.405px 173.57px;" id="elu5upqzxqz7" class="animable"></path><path d="M282.55,185a37.31,37.31,0,0,1,3-6.12" style="fill: none; stroke: rgb(38, 50, 56); stroke-linecap: round; stroke-miterlimit: 10; transform-origin: 284.05px 181.94px;" id="el570ldtf9mi4" class="animable"></path><path d="M256.21,184.79a45.31,45.31,0,0,1,3.93-3.34" style="fill: none; stroke: rgb(38, 50, 56); stroke-linecap: round; stroke-miterlimit: 10; transform-origin: 258.175px 183.12px;" id="elxsbx5bqr5oo" class="animable"></path><path d="M243.26,226.27s-4.52-21.33,9.82-38.18" style="fill: none; stroke: rgb(38, 50, 56); stroke-linecap: round; stroke-miterlimit: 10; transform-origin: 247.832px 207.18px;" id="elxgvffwoimzk" class="animable"></path><path d="M236,218.39c.2,1.2.45,2.42.76,3.65" style="fill: none; stroke: rgb(38, 50, 56); stroke-linecap: round; stroke-miterlimit: 10; transform-origin: 236.38px 220.215px;" id="elgwlch64cgla" class="animable"></path><path d="M238.71,193.14a50.41,50.41,0,0,0-3.11,22" style="fill: none; stroke: rgb(38, 50, 56); stroke-linecap: round; stroke-miterlimit: 10; transform-origin: 237.071px 204.14px;" id="elpoxmfh8sbx" class="animable"></path><path d="M329.48,248.38l-8.93,13.93" style="fill: none; stroke: rgb(38, 50, 56); stroke-linecap: round; stroke-miterlimit: 10; transform-origin: 325.015px 255.345px;" id="eltiz47f08bu" class="animable"></path><path d="M334.19,223.34s5.52,9.1-2.6,21.76" style="fill: none; stroke: rgb(38, 50, 56); stroke-linecap: round; stroke-miterlimit: 10; transform-origin: 333.806px 234.22px;" id="ela9talpzzprr" class="animable"></path><path d="M332.56,227.89s.33,5.2-7.79,10.72-11,8.44-11,8.44" style="fill: none; stroke: rgb(38, 50, 56); stroke-linecap: round; stroke-miterlimit: 10; transform-origin: 323.166px 237.47px;" id="elmwzlye78w3r" class="animable"></path><path d="M228.37,243.83s7.76-12.67,10.83-14.71,5.1-1,5.72,2,1.43,6.13,1.43,6.13l-15.12,7.56C229.59,245.67,228.77,246.28,228.37,243.83Z" style="fill: rgb(219, 219, 219); stroke: rgb(38, 50, 56); stroke-linecap: round; stroke-miterlimit: 10; transform-origin: 237.36px 236.813px;" id="elvwpux5xopj" class="animable"></path><path d="M242.4,234.88s-17.66,8.13-16,12.89,12.05,30.55,12.05,30.55l-11.21,22.41,9.81,11.77s14.85-24.94,16.81-29.42,3.37-11.77,2.25-17.09-9.53-28-10.37-30.27S242.4,234.88,242.4,234.88Z" style="fill: rgb(219, 219, 219); stroke: rgb(38, 50, 56); stroke-linecap: round; stroke-miterlimit: 10; transform-origin: 241.398px 273.468px;" id="elsnsbwge1wvj" class="animable"></path><path d="M247,244.24a44.72,44.72,0,0,1-.82,7.35c-.61,2-5.1,3.07-6.13,2.87s-2.45-4.91-2.45-4.91a19,19,0,0,1,2.66-1.84" style="fill: none; stroke: rgb(38, 50, 56); stroke-linecap: round; stroke-miterlimit: 10; transform-origin: 242.3px 249.362px;" id="elvrwa0twc7jd" class="animable"></path><path d="M245.12,254.05s8,10,8.18,15.53a24.28,24.28,0,0,1-1.43,9.4" style="fill: none; stroke: rgb(38, 50, 56); stroke-linecap: round; stroke-miterlimit: 10; transform-origin: 249.223px 266.515px;" id="el0z7iwfr4z6an" class="animable"></path><path d="M315,248.12s2.65-2.66,4.08-.82,6.34,13.29,6.54,16.15a25.22,25.22,0,0,1-.41,5.92Z" style="fill: rgb(219, 219, 219); stroke: rgb(38, 50, 56); stroke-linecap: round; stroke-miterlimit: 10; transform-origin: 320.325px 258.011px;" id="el7n5ajxpeyw" class="animable"></path><path d="M285.38,315.76s-8.38-38-6.75-39.24,22.28-11.23,22.28-11.23S297,263,297.64,262s16.14-13.69,17.37-13.9,6.13,10.22,7.56,13.49,3.88,8.17,1.43,9.4-17.37,10.21-21.25,11.85-8.79,3.47-8.79,3.47l12.47,24.32Z" style="fill: rgb(219, 219, 219); stroke: rgb(38, 50, 56); stroke-linecap: round; stroke-miterlimit: 10; transform-origin: 301.731px 281.928px;" id="elcpj9vj71hf8" class="animable"></path><polyline points="300.91 265.29 303.36 264.67 303.16 262.22 305.4 269.37" style="fill: none; stroke: rgb(38, 50, 56); stroke-linecap: round; stroke-miterlimit: 10; transform-origin: 303.155px 265.795px;" id="ell2dcq6yyck" class="animable"></polyline><path d="M307.45,254.05s6.94,18.8,6.74,21.45" style="fill: none; stroke: rgb(38, 50, 56); stroke-linecap: round; stroke-miterlimit: 10; transform-origin: 310.822px 264.775px;" id="elhdl6s4ohl2" class="animable"></path><path d="M312.15,250.16s7.56,16.15,7.56,22.48" style="fill: none; stroke: rgb(38, 50, 56); stroke-linecap: round; stroke-miterlimit: 10; transform-origin: 315.93px 261.4px;" id="elrshuhjory7r" class="animable"></path><path d="M282.55,185s-15.59-1-24.68,11.37-11,18.83-11.69,24.68a44.87,44.87,0,0,0-.33,8.77l-2.59-3.57s-.33,4.54,1.62,14.28,8.77,26.31,13.64,29.23,16.89.33,22.41-1.3,22.73-8.77,25-12.34,5.2-8.44,5.2-8.44-1.3-15.59-1.3-16.56-2.92.65-2.92.65-1-10.07-1-18.19v-14s-8.11,8.11-13.64,11.36-12.66,8.45-13.31,9.74,1.95-24.68,1.95-27.6S282.55,185,282.55,185Z" style="fill: rgb(219, 219, 219); stroke: rgb(38, 50, 56); stroke-linecap: round; stroke-miterlimit: 10; transform-origin: 277.184px 228.032px;" id="elx9mko4dgxc" class="animable"></path><path d="M258.4,211.16s9.36-2.95,11.81,4.71" style="fill: none; stroke: rgb(38, 50, 56); stroke-linecap: round; stroke-miterlimit: 10; stroke-width: 2px; transform-origin: 264.305px 213.236px;" id="el9xvpetbwkvp" class="animable"></path><path d="M277.66,206.34s-2.14-9.1-12-7.22" style="fill: none; stroke: rgb(38, 50, 56); stroke-linecap: round; stroke-miterlimit: 10; transform-origin: 271.66px 202.602px;" id="el4h5537kwn6p" class="animable"></path><path d="M293.72,216.51a10.81,10.81,0,0,1,11.5,8.29" style="fill: none; stroke: rgb(38, 50, 56); stroke-linecap: round; stroke-miterlimit: 10; transform-origin: 299.47px 220.633px;" id="elvewylgka1r" class="animable"></path><path d="M291,226.41s8.83-1.07,9.63,8.29" style="fill: none; stroke: rgb(38, 50, 56); stroke-linecap: round; stroke-miterlimit: 10; stroke-width: 2px; transform-origin: 295.815px 230.536px;" id="elovfak079pwe" class="animable"></path><path d="M270.44,229.35a4.3,4.3,0,0,0,2.41,5.08c3.47,1.88,6.68-.53,7.49-1.34" style="fill: none; stroke: rgb(38, 50, 56); stroke-linecap: round; stroke-miterlimit: 10; transform-origin: 275.312px 232.24px;" id="elqywoke2qrdn" class="animable"></path><path d="M260.27,238.71s3.21,12.58,19.8,10.17" style="fill: none; stroke: rgb(38, 50, 56); stroke-linecap: round; stroke-miterlimit: 10; transform-origin: 270.17px 243.948px;" id="el0os9mzluvk3a" class="animable"></path><path d="M260.71,312.38s-7.25,21.23-6.21,22.78,5.44,2.07,6.73.78S260.71,312.38,260.71,312.38Z" style="fill: rgb(255, 255, 255); stroke: rgb(38, 50, 56); stroke-linecap: round; stroke-miterlimit: 10; transform-origin: 258.046px 324.525px;" id="elgnx730qgdio" class="animable"></path><path d="M212.45,301.83s-8.44-.65-10.72,4.22S180,335.62,180,335.62s-7.8-1.95-10.08,2.59-5.19,7.48-4.54,9.1,1.94,29.57,5.52,35.41,24.69,19.5,28.91,21.12,17.22-9.75,20.47-14.62,24.69-46.13,22.09-53-5.2-5.52-5.2-5.52Z" style="fill: rgb(146, 227, 169); stroke: rgb(38, 50, 56); stroke-linecap: round; stroke-miterlimit: 10; transform-origin: 203.938px 352.899px;" id="el5lrhsgtovru" class="animable"></path><path d="M318,315.8a5.13,5.13,0,0,1,5.85.32c2.92,2.28,19.81,33.46,19.81,33.46a10.85,10.85,0,0,1,5.85,1.95c2.6,2,16.57,17.55,17.55,24.7s-2,14.29-3.9,16.24S347,409.69,342.41,412.29s-28.59-4.88-32.17-6.5-9.42-7.47-9.74-11.37-17.22-48.73-17.22-52.31a4.67,4.67,0,0,1,2.92-4.55Z" style="fill: rgb(146, 227, 169); stroke: rgb(38, 50, 56); stroke-linecap: round; stroke-miterlimit: 10; transform-origin: 325.264px 363.934px;" id="elgzh04mxgrpb" class="animable"></path><path d="M257.61,338.86s-.32,79.27,5.52,99.09" style="fill: none; stroke: rgb(38, 50, 56); stroke-linecap: round; stroke-miterlimit: 10; transform-origin: 260.368px 388.405px;" id="elabvs43x3yt" class="animable"></path><path d="M269.66,338.08c4.21,15.13,10.71,37.12,15.57,47.24" style="fill: none; stroke: rgb(38, 50, 56); stroke-linecap: round; stroke-miterlimit: 10; transform-origin: 277.445px 361.7px;" id="el6pytpptzkuw" class="animable"></path><path d="M265.41,322.3s1,3.72,2.5,9.43" style="fill: none; stroke: rgb(38, 50, 56); stroke-linecap: round; stroke-miterlimit: 10; transform-origin: 266.66px 327.015px;" id="eljs1p7ahcbr" class="animable"></path><path d="M279.89,404.85a63.75,63.75,0,0,0,4.69,7.11" style="fill: none; stroke: rgb(38, 50, 56); stroke-linecap: round; stroke-miterlimit: 10; transform-origin: 282.235px 408.405px;" id="el7o0zzt7frwb" class="animable"></path><path d="M266.71,365.83A134.32,134.32,0,0,0,277,399.27" style="fill: none; stroke: rgb(38, 50, 56); stroke-linecap: round; stroke-miterlimit: 10; transform-origin: 271.855px 382.55px;" id="el7fsv5xxst5s" class="animable"></path><path d="M244.92,374.39c-4.15,10-10.64,25.32-14.6,33" style="fill: rgb(255, 255, 255); stroke: rgb(38, 50, 56); stroke-linecap: round; stroke-miterlimit: 10; transform-origin: 237.62px 390.89px;" id="elxipn2iv9yc8" class="animable"></path><path d="M248.84,364.85s-.66,1.63-1.74,4.27" style="fill: rgb(255, 255, 255); stroke: rgb(38, 50, 56); stroke-linecap: round; stroke-miterlimit: 10; transform-origin: 247.97px 366.985px;" id="el0yug3uwtq4z" class="animable"></path><path d="M204.33,207.61s-4.22,33.14-2.92,30.87,23.39-49.06,51-61.08,52-12,57.18-8.45,34.44,66.28,39,80.57,5.52,19.82,4.87,23.39a32.2,32.2,0,0,1-2.92,7.8s14.62-7.8,17.22-14.29-7.15-20.8-8.45-26-2.6-40.94-12.35-63-22.09-36.71-48.73-35.74-47.11,4.87-62.05,25.67S206.93,201.76,204.33,207.61Z" style="fill: rgb(146, 227, 169); stroke: rgb(38, 50, 56); stroke-linecap: round; stroke-miterlimit: 10; transform-origin: 284.68px 211.172px;" id="elfiww32joie6" class="animable"></path><path d="M299.55,146.82c0,1.68-2.47,3.05-5.53,3.05s-5.53-1.37-5.53-3.05,2.47-3.06,5.53-3.06S299.55,145.13,299.55,146.82Z" style="fill: rgb(38, 50, 56); stroke: rgb(38, 50, 56); stroke-linecap: round; stroke-miterlimit: 10; transform-origin: 294.02px 146.815px;" id="elh69b52d2p2c" class="animable"></path><path d="M325.13,155.5c-.85,1.46.6,3.89,3.23,5.44s5.47,1.61,6.32.16-.59-3.89-3.23-5.43S326,154.05,325.13,155.5Z" style="fill: rgb(38, 50, 56); stroke: rgb(38, 50, 56); stroke-linecap: round; stroke-miterlimit: 10; transform-origin: 329.905px 158.304px;" id="elhu0zyboc64n" class="animable"></path><g id="elrjtoxmhjy1"><ellipse cx="313.1" cy="147.77" rx="11.95" ry="11.06" style="fill: rgb(38, 50, 56); stroke: rgb(38, 50, 56); stroke-linecap: round; stroke-miterlimit: 10; transform-origin: 313.1px 147.77px; transform: rotate(-69.2deg);" class="animable"></ellipse></g><path d="M300.32,156.55c0,2.42-5.47,4.39-12.22,4.39s-12.21-2-12.21-4.39,5.47-4.39,12.21-4.39S300.32,154.12,300.32,156.55Z" style="fill: rgb(255, 255, 255); transform-origin: 288.105px 156.55px;" id="el2saic3rkx0w" class="animable"></path><path d="M334.56,178.35c-1.72,1.7-7-.8-11.72-5.59s-7.2-10.06-5.47-11.76,7,.79,11.71,5.58S336.28,176.64,334.56,178.35Z" style="fill: rgb(255, 255, 255); transform-origin: 325.962px 169.674px;" id="el0bq63te0izll" class="animable"></path><polygon points="280.35 313.85 286.2 337.56 318.04 315.8 309.27 299.23 280.35 313.85" style="fill: rgb(38, 50, 56); stroke: rgb(38, 50, 56); stroke-linecap: round; stroke-miterlimit: 10; transform-origin: 299.195px 318.395px;" id="el6mzqzphjpnv" class="animable"></polygon><polygon points="284.21 329.51 316.03 312 312.76 305.82 282.48 322.48 284.21 329.51" style="fill: rgb(255, 255, 255); stroke: rgb(38, 50, 56); stroke-linecap: round; stroke-miterlimit: 10; transform-origin: 299.255px 317.665px;" id="el0ykeymkt5vs" class="animable"></polygon><polygon points="223.17 288.18 247.54 310.27 237.14 330.74 212.45 301.83 223.17 288.18" style="fill: rgb(38, 50, 56); stroke: rgb(38, 50, 56); stroke-linecap: round; stroke-miterlimit: 10; transform-origin: 229.995px 309.46px;" id="el5kvxgbg9kkn" class="animable"></polygon><polygon points="214.23 299.57 240.5 324.13 243.8 317.64 218.57 294.05 214.23 299.57" style="fill: rgb(255, 255, 255); stroke: rgb(38, 50, 56); stroke-linecap: round; stroke-miterlimit: 10; transform-origin: 229.015px 309.09px;" id="elv7d2ndbrgya" class="animable"></polygon></g><g id="freepik--Device--inject-153" class="animable" style="transform-origin: 148.56px 352.444px;"><rect x="135.3" y="439.98" width="8.99" height="1.63" style="fill: rgb(255, 255, 255); stroke: rgb(38, 50, 56); stroke-linecap: round; stroke-miterlimit: 10; transform-origin: 139.795px 440.795px;" id="ele9fzfu9kryb" class="animable"></rect><rect x="146.54" y="439.98" width="8.99" height="1.63" style="fill: rgb(255, 255, 255); stroke: rgb(38, 50, 56); stroke-linecap: round; stroke-miterlimit: 10; transform-origin: 151.035px 440.795px;" id="el3zo9xwg9nk" class="animable"></rect><rect x="157.78" y="439.98" width="8.99" height="1.63" style="fill: rgb(255, 255, 255); stroke: rgb(38, 50, 56); stroke-linecap: round; stroke-miterlimit: 10; transform-origin: 162.275px 440.795px;" id="el94104s3bu7" class="animable"></rect><rect x="169.01" y="439.98" width="8.99" height="1.63" style="fill: rgb(255, 255, 255); stroke: rgb(38, 50, 56); stroke-linecap: round; stroke-miterlimit: 10; transform-origin: 173.505px 440.795px;" id="elb1ca7wof2hp" class="animable"></rect><rect x="180.25" y="439.98" width="8.99" height="1.63" style="fill: rgb(255, 255, 255); stroke: rgb(38, 50, 56); stroke-linecap: round; stroke-miterlimit: 10; transform-origin: 184.745px 440.795px;" id="elsfwc7qsmhg" class="animable"></rect><rect x="191.49" y="439.98" width="8.99" height="1.63" style="fill: rgb(255, 255, 255); stroke: rgb(38, 50, 56); stroke-linecap: round; stroke-miterlimit: 10; transform-origin: 195.985px 440.795px;" id="eljbqdkz45lf" class="animable"></rect><rect x="202.72" y="439.98" width="8.99" height="1.63" style="fill: rgb(255, 255, 255); stroke: rgb(38, 50, 56); stroke-linecap: round; stroke-miterlimit: 10; transform-origin: 207.215px 440.795px;" id="elsicky9dpqfa" class="animable"></rect><rect x="213.96" y="439.98" width="8.99" height="1.63" style="fill: rgb(255, 255, 255); stroke: rgb(38, 50, 56); stroke-linecap: round; stroke-miterlimit: 10; transform-origin: 218.455px 440.795px;" id="elghagh09iin" class="animable"></rect><rect x="225.19" y="439.98" width="8.99" height="1.63" style="fill: rgb(255, 255, 255); stroke: rgb(38, 50, 56); stroke-linecap: round; stroke-miterlimit: 10; transform-origin: 229.685px 440.795px;" id="elssi167y0jxp" class="animable"></rect><rect x="236.43" y="439.98" width="8.99" height="1.63" style="fill: rgb(255, 255, 255); stroke: rgb(38, 50, 56); stroke-linecap: round; stroke-miterlimit: 10; transform-origin: 240.925px 440.795px;" id="elxoh8ky8tchf" class="animable"></rect><rect x="247.67" y="439.98" width="8.99" height="1.63" style="fill: rgb(255, 255, 255); stroke: rgb(38, 50, 56); stroke-linecap: round; stroke-miterlimit: 10; transform-origin: 252.165px 440.795px;" id="elc5bt59w2l0n" class="animable"></rect><rect x="258.9" y="439.98" width="8.99" height="1.63" style="fill: rgb(255, 255, 255); stroke: rgb(38, 50, 56); stroke-linecap: round; stroke-miterlimit: 10; transform-origin: 263.395px 440.795px;" id="elf5lf2qa95k" class="animable"></rect><rect x="270.14" y="439.98" width="8.99" height="1.63" style="fill: rgb(255, 255, 255); stroke: rgb(38, 50, 56); stroke-linecap: round; stroke-miterlimit: 10; transform-origin: 274.635px 440.795px;" id="elfxv5w91zo2i" class="animable"></rect><rect x="131.23" y="440.95" width="155.87" height="4.24" style="fill: rgb(255, 255, 255); stroke: rgb(38, 50, 56); stroke-linecap: round; stroke-miterlimit: 10; transform-origin: 209.165px 443.07px;" id="el4drkm5irzjh" class="animable"></rect><rect x="14.83" y="259.69" width="208.51" height="144.72" rx="6.9" style="fill: rgb(38, 50, 56); stroke: rgb(38, 50, 56); stroke-linecap: round; stroke-miterlimit: 10; transform-origin: 119.085px 332.05px;" id="elr6ihghcb6s9" class="animable"></rect><rect x="10.02" y="259.69" width="208.51" height="144.72" rx="6.9" style="fill: rgb(161, 161, 161); stroke: rgb(38, 50, 56); stroke-linecap: round; stroke-miterlimit: 10; transform-origin: 114.275px 332.05px;" id="elxle28l3v8oq" class="animable"></rect><path d="M126.49,442.49c-4.89,0-5.66-3.17-5.66-3.17l2.77-108.75H90.94L74.17,439.32c-.84,7,4.6,5.8,4.6,5.8h83.79v-2.63Zm-13.93-56.56c-.49,6.93-5.58,12.22-11.38,11.82s-10.1-6.36-9.61-13.3,5.58-12.22,11.37-11.82S113,379,112.56,385.93Z" style="fill: rgb(196, 196, 196); stroke: rgb(38, 50, 56); stroke-linecap: round; stroke-miterlimit: 10; transform-origin: 118.321px 387.884px;" id="elwxwlmjxcf0p" class="animable"></path></g><g id="freepik--Toy--inject-153" class="animable animator-active" style="transform-origin: 325.024px 407.06px;"><path d="M312.58,408.44s-24.95-7.81-24.65-.3,13.53,12.63,13.53,12.63-9.62,11.13-8.72,15,20.75,9.92,35.78,9.62,24.66-5.41,25.26-9.92-2.41-14.74-2.41-14.74,6-9.92,6-13.83-7.52-2.71-9.93-1.2S323.71,413.26,312.58,408.44Z" style="fill: rgb(255, 255, 255); stroke: rgb(38, 50, 56); stroke-linecap: round; stroke-miterlimit: 10; transform-origin: 322.649px 424.834px;" id="el5xge90bifwk" class="animable"></path><path d="M303.16,405.24s-8.39,12.4-6.57,14.59,4.87.94,4.87.94-7.42,8.55-7.42,9.65,15.39,9.24,34.44,8.6c20.09-.68,24.3-6.78,25.4-9s-.73-12.77-.73-12.77l2.19-4s-.37-4-3.29-6.21a18.87,18.87,0,0,0-6.93-2.92Z" style="fill: rgb(146, 227, 169); stroke: rgb(38, 50, 56); stroke-linecap: round; stroke-miterlimit: 10; transform-origin: 324.69px 421.588px;" id="eljzbgwr1fstd" class="animable"></path><path d="M311.08,411.51a29.91,29.91,0,0,0,10.12,13.58c7.65,5.67,14.56,4.69,20-.5S348.6,409,348.6,409Z" style="fill: rgb(38, 50, 56); stroke: rgb(38, 50, 56); stroke-linecap: round; stroke-miterlimit: 10; transform-origin: 329.84px 418.966px;" id="elu74v6ot9fp" class="animable"></path><path d="M349.36,406.2s5.87,3.56,5.24,8.59l2.1-4.4s-2.94-6.49-6.92-7.12Z" style="fill: rgb(38, 50, 56); stroke: rgb(38, 50, 56); stroke-linecap: round; stroke-miterlimit: 10; transform-origin: 353.03px 409.03px;" id="elml6rgbssnm" class="animable"></path><circle cx="352.2" cy="381.68" r="9.92" style="fill: rgb(255, 255, 255); stroke: rgb(38, 50, 56); stroke-linecap: round; stroke-miterlimit: 10; transform-origin: 352.2px 381.68px;" id="elzp2zr28hdd" class="animable"></circle><circle cx="322.13" cy="374.59" r="5.87" style="fill: rgb(38, 50, 56); stroke: rgb(38, 50, 56); stroke-linecap: round; stroke-miterlimit: 10; transform-origin: 322.13px 374.59px;" id="el62opjw12iz6" class="animable"></circle><ellipse cx="328.94" cy="395.99" rx="24.34" ry="23.8" style="fill: rgb(255, 255, 255); stroke: rgb(38, 50, 56); stroke-linecap: round; stroke-miterlimit: 10; transform-origin: 328.94px 395.99px;" id="el142yjw84pytf" class="animable"></ellipse><circle cx="307.53" cy="386.12" r="12.46" style="fill: rgb(255, 255, 255); stroke: rgb(38, 50, 56); stroke-linecap: round; stroke-miterlimit: 10; transform-origin: 307.53px 386.12px;" id="elz2uyxbnvgwd" class="animable"></circle><path d="M306,404.74s-5.24-1.68-6.92-.42-6.07,11.31-6.28,12.78,3.8,2.73,3.8,2.73Z" style="fill: rgb(38, 50, 56); stroke: rgb(38, 50, 56); stroke-linecap: round; stroke-miterlimit: 10; transform-origin: 299.396px 411.841px;" id="eliz4o8snz8c" class="animable"></path><path d="M295.51,428s.2.24-1.47,2.43-1.46,2.6-.42,3.65,12.16,7.13,27.66,7.75,25.36-2.93,28.29-4,4.4-2.72,4.61-4.4a9.5,9.5,0,0,0-.3-3.39S328,444.13,295.51,428Z" style="fill: rgb(38, 50, 56); stroke: rgb(38, 50, 56); stroke-linecap: round; stroke-miterlimit: 10; transform-origin: 323.516px 434.951px;" id="elo6z7aqni72" class="animable"></path></g><g id="freepik--Mug--inject-153" class="animable" style="transform-origin: 370.719px 395.405px;"><path d="M381,400.86s7.17-3.88,12.25-.89,6,19.42,3,25.69-12.55,4.78-12.55,4.78v-6.87s5.38,1.19,7.77-5.08-1.2-11.05-3.29-10.75a30.16,30.16,0,0,0-6,2.09Z" style="fill: rgb(255, 255, 255); stroke: rgb(38, 50, 56); stroke-linecap: round; stroke-miterlimit: 10; transform-origin: 389.479px 414.716px;" id="el46oghu5m156" class="animable"></path><rect x="343.48" y="392.61" width="41.6" height="52.59" style="fill: rgb(255, 255, 255); stroke: rgb(38, 50, 56); stroke-linecap: round; stroke-miterlimit: 10; transform-origin: 364.28px 418.905px;" id="elhintm74k36n" class="animable"></rect><path d="M348.74,388.16c0-4.25,4-4.25,4-8.5s-4-4.26-4-8.52,4-4.25,4-8.5-4-4.26-4-8.52,4-4.25,4-8.51" style="fill: none; stroke: rgb(38, 50, 56); stroke-linecap: round; stroke-miterlimit: 10; transform-origin: 350.74px 366.885px;" id="el0epmdrmvw8jb" class="animable"></path><path d="M363.63,388.16c0-4.25,4-4.25,4-8.5s-4-4.26-4-8.52,4-4.25,4-8.5-4-4.26-4-8.52,4-4.25,4-8.51" style="fill: none; stroke: rgb(38, 50, 56); stroke-linecap: round; stroke-miterlimit: 10; transform-origin: 365.63px 366.885px;" id="el7z3rq2u59ov" class="animable"></path><path d="M378.52,388.16c0-4.25,4-4.25,4-8.5s-4-4.26-4-8.52,4-4.25,4-8.5-4-4.26-4-8.52,4-4.25,4-8.51" style="fill: none; stroke: rgb(38, 50, 56); stroke-linecap: round; stroke-miterlimit: 10; transform-origin: 380.52px 366.885px;" id="el6xa0l3g35we" class="animable"></path></g><defs>     <filter id="active" height="200%">         <feMorphology in="SourceAlpha" result="DILATED" operator="dilate" radius="2"></feMorphology>                <feFlood flood-color="#32DFEC" flood-opacity="1" result="PINK"></feFlood>        <feComposite in="PINK" in2="DILATED" operator="in" result="OUTLINE"></feComposite>        <feMerge>            <feMergeNode in="OUTLINE"></feMergeNode>            <feMergeNode in="SourceGraphic"></feMergeNode>        </feMerge>    </filter>    <filter id="hover" height="200%">        <feMorphology in="SourceAlpha" result="DILATED" operator="dilate" radius="2"></feMorphology>                <feFlood flood-color="#ff0000" flood-opacity="0.5" result="PINK"></feFlood>        <feComposite in="PINK" in2="DILATED" operator="in" result="OUTLINE"></feComposite>        <feMerge>            <feMergeNode in="OUTLINE"></feMergeNode>            <feMergeNode in="SourceGraphic"></feMergeNode>        </feMerge>            <feColorMatrix type="matrix" values="0   0   0   0   0                0   1   0   0   0                0   0   0   0   0                0   0   0   1   0 "></feColorMatrix>    </filter></defs></svg>